<svg viewBox="0 0 188 42" fill="none" xmlns="http://www.w3.org/2000/svg">
<path d="M20.0097 13.2917C20.0097 8.60488 23.7905 4.80513 28.454 4.80513C33.1175 4.80513 36.8984 8.60488 36.8984 13.2917C36.8984 13.6466 36.8689 14.0014 36.8248 14.3415C38.3254 13.6761 39.9583 13.2474 41.6648 13.0995C41.5619 5.84008 35.6773 0 28.454 0C21.216 0 15.3462 5.84008 15.2432 13.0847C16.9497 13.2326 18.5827 13.6614 20.0833 14.3119C20.0244 13.9718 20.0097 13.6318 20.0097 13.2917Z" fill="#8255F6"/>
<path d="M42.6279 15.3658C38.8909 15.3658 35.5232 16.9073 33.1156 19.3973C32.9236 19.59 32.7316 19.7975 32.5544 20.0198L18.8177 35.0932C17.2668 36.4419 15.4648 37.1978 13.2788 37.1978C8.59648 37.1978 4.80044 33.3887 4.80044 28.6903C4.80044 23.9919 8.59648 20.1828 13.2788 20.1828C17.2964 20.1828 20.664 22.9841 21.5355 26.7635L25.2872 22.9989C23.1603 18.4932 18.5814 15.3658 13.2788 15.3658C5.93777 15.3658 0 21.3241 0 28.6755C0 36.027 5.93777 42 13.2788 42C17.6804 42 21.5798 39.8509 24.0022 36.5457L32.6578 27.0451L35.7891 23.651C35.8777 23.5176 35.9811 23.3991 36.0845 23.2657L36.6015 22.6876C38.1376 21.1314 40.2646 20.168 42.6131 20.168C47.2954 20.168 51.0914 23.9771 51.0914 28.6755C51.0914 33.3739 47.2954 37.183 42.6131 37.183C38.5069 37.183 35.0801 34.2484 34.2973 30.3503L30.7228 34.5893C32.8941 38.9764 37.3991 42 42.6131 42C49.9393 42 55.8919 36.0418 55.8919 28.6755C55.8919 21.3092 49.9541 15.3658 42.6279 15.3658Z" fill="url(#paint0_linear)"/>
<path d="M76.2162 31.9253L81.4185 14.3415H88.3549L93.5572 31.9253L92.9969 32.7805H89.1019L88.1948 29.4935H81.5786L80.6715 32.7805H76.7764L76.2162 31.9253ZM82.8058 25.298H86.9676L85.0468 18.537H84.7266L82.8058 25.298Z" fill="#8255F6"/>
<path d="M95.2804 31.1771V28.5849H103.577C103.773 28.5849 103.871 28.487 103.871 28.291V26.4738C103.871 26.2244 103.764 26.0819 103.551 26.0462L98.6152 25.0308C96.392 24.6032 95.2804 23.1156 95.2804 20.568V19.0448C95.2804 15.9092 96.8456 14.3415 99.9758 14.3415H105.898L107.979 15.9449V18.537H100.216C100.02 18.537 99.9225 18.635 99.9225 18.831V20.5412C99.9225 20.7729 100.029 20.9154 100.243 20.9688L105.178 21.9309C107.401 22.3941 108.513 23.8906 108.513 26.4204V28.0772C108.513 31.2127 106.948 32.7805 103.818 32.7805H97.3614L95.2804 31.1771Z" fill="#8255F6"/>
<path d="M111.069 31.1771V28.5849H119.366C119.561 28.5849 119.659 28.487 119.659 28.291V26.4738C119.659 26.2244 119.552 26.0819 119.339 26.0462L114.403 25.0308C112.18 24.6032 111.069 23.1156 111.069 20.568V19.0448C111.069 15.9092 112.634 14.3415 115.764 14.3415H121.687L123.768 15.9449V18.537H116.004C115.809 18.537 115.711 18.635 115.711 18.831V20.5412C115.711 20.7729 115.817 20.9154 116.031 20.9688L120.966 21.9309C123.19 22.3941 124.301 23.8906 124.301 26.4204V28.0772C124.301 31.2127 122.736 32.7805 119.606 32.7805H113.15L111.069 31.1771Z" fill="#8255F6"/>
<path d="M127.39 28.0772V19.0448C127.39 15.9092 128.956 14.3415 132.086 14.3415H138.062C141.192 14.3415 142.757 15.9092 142.757 19.0448V28.0772C142.757 31.2127 141.192 32.7805 138.062 32.7805H132.086C128.956 32.7805 127.39 31.2127 127.39 28.0772ZM132.033 28.291C132.033 28.487 132.13 28.5849 132.326 28.5849H137.822C138.017 28.5849 138.115 28.487 138.115 28.291V18.831C138.115 18.635 138.017 18.537 137.822 18.537H132.326C132.13 18.537 132.033 18.635 132.033 18.831V28.291Z" fill="#8255F6"/>
<path d="M146.383 28.0772V19.0448C146.383 15.9092 147.948 14.3415 151.079 14.3415H157.988L160.069 15.9449V18.537H151.319C151.123 18.537 151.025 18.635 151.025 18.831V28.291C151.025 28.487 151.123 28.5849 151.319 28.5849H160.069V31.1771L157.988 32.7805H151.079C147.948 32.7805 146.383 31.2127 146.383 28.0772Z" fill="#8255F6"/>
<path d="M163.48 32.7805V14.3415H168.122V32.7805H163.48Z" fill="#8255F6"/>
<path d="M170.659 31.9253L175.861 14.3415H182.798L188 31.9253L187.44 32.7805H183.545L182.638 29.4935H176.021L175.114 32.7805H171.219L170.659 31.9253ZM177.249 25.298H181.41L179.49 18.537H179.169L177.249 25.298Z" fill="#8255F6"/>
<defs>
<linearGradient id="paint0_linear" x1="27.4378" y1="42" x2="27.4378" y2="24.0732" gradientUnits="userSpaceOnUse">
<stop stop-color="#99F0AC"/>
<stop offset="1" stop-color="#8255F6"/>
</linearGradient>
</defs>
</svg>
